<svg width="79" height="11" viewBox="0 0 79 11" fill="none" xmlns="http://www.w3.org/2000/svg">
<path d="M4.09617 10.5821C3.18922 10.5821 2.42316 10.3796 1.79798 9.97456C1.17281 9.56952 0.728138 9.01038 0.463979 8.29715L2.02252 7.3858C2.38353 8.32797 3.09236 8.79905 4.149 8.79905C4.64209 8.79905 5.01192 8.711 5.25847 8.5349C5.50501 8.35879 5.62829 8.12105 5.62829 7.82167C5.62829 7.49587 5.483 7.24492 5.19243 7.06881C4.90185 6.8839 4.38234 6.68578 3.63389 6.47445C2.8238 6.22791 2.18542 5.94173 1.71873 5.61594C1.13758 5.18448 0.847009 4.5505 0.847009 3.71399C0.847009 2.86868 1.14199 2.20388 1.73194 1.71959C2.3219 1.21769 3.03953 0.966738 3.88484 0.966738C4.62448 0.966738 5.28048 1.14725 5.85282 1.50826C6.42517 1.86928 6.86984 2.37999 7.18683 3.04039L5.6547 3.92532C5.28488 3.13284 4.69493 2.7366 3.88484 2.7366C3.51502 2.7366 3.22004 2.82466 2.99991 3.00076C2.77977 3.16806 2.66971 3.3882 2.66971 3.66116C2.66971 3.95174 2.78858 4.18948 3.02632 4.37439C3.29048 4.5593 3.75716 4.75302 4.42636 4.95554L5.06035 5.16687C5.17482 5.20209 5.37293 5.27693 5.6547 5.3914C5.91886 5.48826 6.11258 5.58072 6.23585 5.66877C6.66731 5.93293 6.95789 6.20589 7.10758 6.48766C7.33652 6.85749 7.45099 7.29335 7.45099 7.79525C7.45099 8.64936 7.1384 9.32737 6.51322 9.82927C5.88804 10.3312 5.08236 10.5821 4.09617 10.5821ZM13.8321 4.82346V1.15165H15.6416V10.3972H13.8321V6.56691H10.398V10.3972H8.57531V1.15165H10.398V4.82346H13.8321ZM25.2839 10.3972H23.3027L22.748 8.73301H19.0629L18.5082 10.3972H16.5402L19.7762 1.15165H22.0347L25.2839 10.3972ZM20.9121 3.25171L19.6441 7.02919H22.18L20.9121 3.25171ZM26.1816 1.15165H29.6289C30.5094 1.15165 31.2579 1.45103 31.8742 2.04979C32.4818 2.64855 32.7856 3.38379 32.7856 4.25552C32.7856 5.12724 32.4818 5.86249 31.8742 6.46125C31.2579 7.06001 30.5094 7.35939 29.6289 7.35939H28.0043V10.3972H26.1816V1.15165ZM28.0043 5.65556H29.6289C30.0163 5.65556 30.3377 5.52348 30.5931 5.25932C30.8484 4.98636 30.9761 4.65176 30.9761 4.25552C30.9761 3.85047 30.8484 3.51587 30.5931 3.25171C30.3377 2.98756 30.0163 2.85548 29.6289 2.85548H28.0043V5.65556ZM35.7949 6.58012V8.65377H39.6913V10.3972H33.9722V1.15165H39.6252V2.8951H35.7949V4.86308H39.295V6.58012H35.7949ZM45.5196 10.3972H43.261L40.1572 1.15165H42.1384L44.3969 8.25753L46.6423 1.15165H48.6367L45.5196 10.3972ZM56.8944 9.19529C55.9611 10.1198 54.8252 10.5821 53.4868 10.5821C52.1484 10.5821 51.0125 10.1198 50.0791 9.19529C49.1546 8.25313 48.6923 7.11284 48.6923 5.77443C48.6923 4.42722 49.1546 3.29134 50.0791 2.36678C51.0125 1.43342 52.1484 0.966738 53.4868 0.966738C54.8252 0.966738 55.9611 1.43342 56.8944 2.36678C57.8278 3.29134 58.2945 4.42722 58.2945 5.77443C58.2945 7.12164 57.8278 8.26193 56.8944 9.19529ZM51.3603 7.95375C51.9238 8.51728 52.6327 8.79905 53.4868 8.79905C54.3409 8.79905 55.0497 8.51728 55.6133 7.95375C56.1856 7.3814 56.4718 6.65496 56.4718 5.77443C56.4718 4.8939 56.1856 4.16747 55.6133 3.59512C55.0409 3.02278 54.3321 2.7366 53.4868 2.7366C52.6415 2.7366 51.9327 3.02278 51.3603 3.59512C50.788 4.16747 50.5018 4.8939 50.5018 5.77443C50.5018 6.65496 50.788 7.3814 51.3603 7.95375ZM59.5756 10.3972V1.15165H61.3982V10.3972H59.5756ZM67.4947 10.5821C66.1123 10.5821 64.9632 10.1198 64.0475 9.19529C63.1405 8.27954 62.6871 7.13926 62.6871 5.77443C62.6871 4.40081 63.1405 3.26052 64.0475 2.35357C64.9632 1.42902 66.1123 0.966738 67.4947 0.966738C68.3313 0.966738 69.1017 1.16486 69.8061 1.5611C70.5194 1.94853 71.0741 2.47685 71.4703 3.14605L69.8986 4.0574C69.6697 3.64355 69.3439 3.32216 68.9212 3.09322C68.4986 2.85548 68.0231 2.7366 67.4947 2.7366C66.5966 2.7366 65.8702 3.01837 65.3154 3.58191C64.7695 4.15426 64.4965 4.8851 64.4965 5.77443C64.4965 6.65496 64.7695 7.3814 65.3154 7.95375C65.8702 8.51728 66.5966 8.79905 67.4947 8.79905C68.0231 8.79905 68.4986 8.68459 68.9212 8.45565C69.3527 8.2179 69.6785 7.89651 69.8986 7.49147L71.4703 8.40282C71.0741 9.07202 70.5194 9.60474 69.8061 10.001C69.1017 10.3884 68.3313 10.5821 67.4947 10.5821ZM74.4127 6.58012V8.65377H78.3091V10.3972H72.59V1.15165H78.243V2.8951H74.4127V4.86308H77.9128V6.58012H74.4127Z" fill="black"/>
</svg>
